# xmcd
#
# Track frame offsets:
# 150
# 22951
# 54174
# 73839
# 88328
# 114969
# 145969
# 160478
#
# Disc length: 2388 seconds
#
# Revision: 0
# Processed by: cddbd v1.4PL0 Copyright (c) Steve Scherf et al.
# Submitted via: Audion 3.0.2 (http://www.panic.com/audion/)
#
DISCID=69095208
DTITLE=Dance Disaster Movement - We Are From Nowhere
DYEAR=1900
DGENRE=
TTITLE0=I Want Your Sass
TTITLE1=C'est la vie
TTITLE2=Saturday
TTITLE3=Quarkscrews
TTITLE4=Got the Piece of Mine (Shoot Me in the Fucking Head)
TTITLE5=The Shots
TTITLE6=Erehwonmorferaew
TTITLE7=Seizure
EXTD=
EXTT0=
EXTT1=
EXTT2=
EXTT3=
EXTT4=
EXTT5=
EXTT6=
EXTT7=
PLAYORDER=
